<svg xmlns="http://www.w3.org/2000/svg" viewBox="0 0 48 48">
  <path fill="#EA4335" d="M24 9.5c3.54 0 6.7 1.22 9.2 3.6l6.85-6.85C35.9 2.4 30.37 0 24 0 14.82 0 6.73 5.4 2.69 13.32l7.98 6.2C12.54 13.4 17.8 9.5 24 9.5z"/>
  <path fill="#4285F4" d="M46.1 24.5c0-1.63-.15-3.2-.43-4.7H24v9h12.4c-.54 2.9-2.18 5.35-4.66 7v5.8h7.53c4.4-4.05 6.83-10.02 6.83-17.1z"/>
  <path fill="#FBBC05" d="M10.67 28.52A14.5 14.5 0 0 1 9.5 24c0-1.57.27-3.08.75-4.48l-7.98-6.2A23.98 23.98 0 0 0 0 24c0 3.87.92 7.53 2.69 10.68l7.98-6.16z"/>
  <path fill="#34A853" d="M24 48c6.48 0 11.92-2.14 15.9-5.82l-7.53-5.8c-2.1 1.4-4.78 2.22-8.37 2.22-6.2 0-11.46-3.9-13.33-9.18l-7.98 6.16C6.73 42.6 14.82 48 24 48z"/>
</svg>